<svg xmlns="http://www.w3.org/2000/svg" width="262.97" height="30.19" viewBox="0 0 262.97 30.19">
  <title>Will + Mae</title>
  <path
    d="M36.78,3.88v.33H36.5a3.08,3.08,0,0,0-2.88,2L28.2,23.55a16.64,16.64,0,0,0-.71,3.63h-.31L20.49,8.47l-5,15.08a17.07,17.07,0,0,0-.69,3.63h-.31L7.1,6.2a3.08,3.08,0,0,0-2.86-2H4V3.88h7.28V4.2H11a1.42,1.42,0,0,0-1.28,2l5,15.93,6.1-18.78H21l6.46,18.1L31.87,6.16c.32-1.26-.38-2-1.27-2h-.29V3.88Z"
    stroke-miterlimit="10" stroke-width="0.5" />
  <path
    d="M53.74,26.79H46.58v-.33H47a2.09,2.09,0,0,0,2.1-2.05V6.25a2.1,2.1,0,0,0-2.1-2h-.41V3.88h7.16V4.2h-.42a2.1,2.1,0,0,0-2.09,2V24.41a2.09,2.09,0,0,0,2.09,2.05h.42Z"
    stroke-miterlimit="10" stroke-width="0.5" />
  <path
    d="M81.3,21.5l-1.9,5.29H65.83v-.33h.42a2.09,2.09,0,0,0,2.09-2.05V6.27a2.1,2.1,0,0,0-2.09-2.06h-.42V3.88H73v.33h-.41a2.1,2.1,0,0,0-2.1,2.06V25.79h4.69C78.63,25.79,80,24,81,21.5Z"
    stroke-miterlimit="10" stroke-width="0.5" />
  <path
    d="M107.39,21.5l-1.91,5.29H91.91v-.33h.42a2.1,2.1,0,0,0,2.1-2.05V6.27a2.11,2.11,0,0,0-2.1-2.06h-.42V3.88h7.16v.33h-.41a2.1,2.1,0,0,0-2.1,2.06V25.79h4.7c3.47,0,4.8-1.79,5.81-4.29Z"
    stroke-miterlimit="10" stroke-width="0.5" />
  <path d="M130.86,26.79v-5h-4.52V20.41h4.52V15.87h1.63v4.54H137v1.36h-4.52v5Z" stroke-miterlimit="10"
    stroke-width="0.2" />
  <path
    d="M182,24.41a2.31,2.31,0,0,0,2.38,2.05h.53v.33h-7.12v-.31h.51a1.35,1.35,0,0,0,1.28-1.4L178.12,8.61l-6.88,15.3a16.31,16.31,0,0,0-1.12,3.34h-.31L161.44,9.09l-1.43,16a1.33,1.33,0,0,0,1.27,1.4h.51v.31h-6.34v-.33H156a2.32,2.32,0,0,0,2.39-2.05l2.46-21h.3l9.14,19.75,8.93-19.74h.3Z"
    stroke-miterlimit="10" stroke-width="0.5" />
  <path
    d="M214.11,24.4A3.24,3.24,0,0,0,217,26.46h.27v.33h-7.37v-.32h.29a1.4,1.4,0,0,0,1.24-2.06l-2.09-5.57h-8.82l-2.19,5.59a1.39,1.39,0,0,0,1.25,2h.29v.32h-6.59v-.33h.3a3.23,3.23,0,0,0,2.86-2.05l7.43-17.62a17.26,17.26,0,0,0,1.21-3.37h.29ZM209,17.86,205,7.35,200.9,17.86Z"
    stroke-miterlimit="10" stroke-width="0.5" />
  <path
    d="M240.62,26.79H227.05v-.33h.42a2.09,2.09,0,0,0,2.09-2.05V6.08a2.1,2.1,0,0,0-2.08-1.88h-.42V3.88h9.56a13.94,13.94,0,0,0,3.91-.6V7.42h-.33V6.83a2,2,0,0,0-1.84-1.95h-6.67V15h5.53a1.61,1.61,0,0,0,1.58-1.61v-.48h.32v5.18h-.32v-.49A1.61,1.61,0,0,0,237.26,16h-5.57v9.81h4.69c3.47,0,4.8-1.79,5.81-4.29h.33Z"
    stroke-miterlimit="10" stroke-width="0.5" />
</svg>
